# AST/ASF file generated using VICON BodyLanguage
# -----------------------------------------------
:version 1.10
:name VICON
:units
  mass 1.0
  length 0.45
  angle deg
:documentation
   .ast/.asf automatically generated from VICON data using
   VICON BodyBuilder and BodyLanguage model FoxedUp or BRILLIANT.MOD
:root
   order TX TY TZ RX RY RZ
   axis XYZ
   position 0 0 0  
   orientation 0 0 0 
:bonedata
  begin
     id 1 
     name lhipjoint
     direction 0.597014 -0.743513 0.301268 
     length 2.48253 
     axis 0 0 0  XYZ
  end
  begin
     id 2 
     name lfemur
     direction 0.34202 -0.939693 0  
     length 7.51389  
     axis 0 0 20  XYZ
    dof rx ry rz
    limits (-160.0 20.0)
           (-70.0 70.0)
           (-60.0 70.0)
  end
  begin
     id 3 
     name ltibia
     direction 0.34202 -0.939693 0   
     length 7.54147   
     axis 0 0 20   XYZ
    dof rx
    limits (-10.0 170.0)
  end
  begin
     id 4 
     name lfoot
     direction 0.10378 -0.285133 0.952853   
     length 2.2132   
     axis -90 7.62852e-016 20   XYZ
    dof rx rz
    limits (-45.0 90.0)
           (-70.0 20.0)
  end
  begin
     id 5 
     name ltoes
     direction 1.5354e-011 -4.2171e-011 1   
     length 1.10362   
     axis -90 7.62852e-016 20   XYZ
    dof rx
    limits (-90.0 20.0)
  end
  begin
     id 6 
     name rhipjoint
     direction -0.591912 -0.747009 0.302685   
     length 2.47092  
     axis 0 0 0  XYZ 
  end
  begin
     id 7 
     name rfemur
     direction -0.34202 -0.939693 0   
     length 7.69991   
     axis 0 0 -20   XYZ
    dof rx ry rz
    limits (-160.0 20.0)
           (-70.0 70.0)
           (-70.0 60.0)
  end
  begin
     id 8 
     name rtibia
     direction -0.34202 -0.939693 0   
     length 7.40774   
     axis 0 0 -20   XYZ
    dof rx
    limits (-10.0 170.0)
 end
 begin
     id 9 
     name rfoot
     direction -0.0916245 -0.251736 0.963449   
     length 2.08235  
     axis -90 -7.62852e-016 -20   XYZ
    dof rx rz
    limits (-45.0 90.0)
           (-20.0 70.0)
  end
  begin
     id 10 
     name rtoes
     direction -1.53527e-011 -4.21878e-011 1   
     length 1.04369   
     axis -90 -7.62852e-016 -20   XYZ
    dof rx
    limits (-90.0 20.0)
  end
  begin
     id 11 
     name lowerback
     direction -0.0122523 0.991496 -0.12956   
     length 2.10814   
     axis 0 0 0   XYZ
    dof rx ry rz
    limits (-20.0 45.0)
           (-30.0 30.0)
           (-30.0 30.0)
  end
  begin
     id 12 
     name upperback
     direction 0.012378 0.999784 -0.0167122   
     length 2.11728   
     axis 0 0 0   XYZ
    dof rx ry rz
    limits (-20.0 45.0)
           (-30.0 30.0)
           (-30.0 30.0)
  end
  begin
     id 13 
     name thorax
     direction 0.0187236 0.998893 0.0431542   
     length 2.15267   
     axis 0 0 0   XYZ
    dof rx ry rz
    limits (-20.0 45.0)
           (-30.0 30.0)
           (-30.0 30.0)
  end
  begin
     id 14 
     name lowerneck
     direction 0.0165467 0.987304 0.157979   
     length 1.72129   
     axis 0 0 0   XYZ
    dof rx ry rz
    limits (-20.0 45.0)
           (-30.0 30.0)
           (-30.0 30.0)
  end
  begin
     id 15 
     name upperneck
     direction -0.0560236 0.986819 -0.151818   
     length 1.75382   
     axis 0 0 0   XYZ
    dof rx ry rz
    limits (-20.0 45.0)
           (-30.0 30.0)
           (-30.0 30.0)
  end
  begin
     id 16
     name head
     direction -0.0173602 0.99745 -0.0692312  
     length 1.76328  
     axis 0 0 0   XYZ
    dof rx ry rz
    limits (-20.0 45.0)
           (-30.0 30.0)
           (-30.0 30.0)
  end
  begin
     id 17 
     name lclavicle
     direction 0.957734 0.271724 -0.094399  
     length 3.5782  
     axis 0 0 0   XYZ
    dof ry rz
    limits (-20.0 10.0)
           (0.0 20.0)
  end
  begin
     id 18 
     name lhumerus
     direction 1 -4.48963e-011 1.21581e-027   
     length 5.25525   
     axis 180 -30 -90   XYZ
    dof rx ry rz
    limits (-60.0 90.0)
           (-90.0 90.0)
           (-90.0 90.0)
  end
  begin
     id 19
     name lradius
     direction 1 -4.48975e-011 3.71216e-028   
     length 3.35106   
     axis 180 -30 -90   XYZ
    dof rx
    limits (-10.0 170.0)
  end
  begin
     id 20
     name lwrist
     direction 1 -4.48957e-011 4.76535e-027   
     length 1.67553   
     axis -3.27501e-015 90 90   XYZ
    dof ry
    limits (-180.0 0.0)
 end
  begin
     id 21 
     name lhand
     direction 1 -4.49008e-011 9.52727e-027   
     length 0.574153   
     axis -6.08097e-015 90 90   XYZ
    dof rx rz
    limits (-90.0 90.0)
           (-45.0 45.0)
  end
  begin
     id 22 
     name lfingers
     direction 1 -4.48996e-011 1.90562e-026   
     length 0.462897   
     axis -1.21618e-014 90 90   XYZ
    dof rx
    limits (0.0 90.0)
  end
  begin
     id 23
     name lthumb
     direction 0.707107 -6.34908e-011 0.707107   
     length 0.66463   
     axis -90 45 -1.62303e-014   XYZ
    dof rx rz
    limits (-45.0 45.0)
           (-45.0 45.0)
  end
  begin
     id 24 
     name rclavicle
     direction -0.950439 0.29623 -0.0944132   
     length 3.45861  
     axis 0 0 0   XYZ 
    dof ry rz
    limits (-10.0 20.0)
           (-20.0 0.0)
  end
  begin
     id 25 
     name rhumerus
     direction -1 -4.48986e-011 1.25473e-027  
     length 5.33104   
     axis 180 30 90   XYZ
    dof rx ry rz
    limits (-90.0 60.0)
           (-90.0 90.0)
           (-90.0 90.0)
  end
  begin
     id 26 
     name rradius
     direction -1 -4.4894e-011 1.66273e-027   
     length 3.39883   
     axis 180 30 90   XYZ
    dof rx
    limits (-10.0 170.0)
  end
  begin
     id 27 
     name rwrist
     direction -1 -4.48946e-011 4.76572e-027   
     length 1.69941   
     axis -3.27501e-015 -90 -90   XYZ
    dof ry
    limits (-180.0 0.0)
  end
  begin
     id 28
     name rhand
     direction -1 -4.49028e-011 9.52595e-027   
     length 0.913886   
     axis -6.08097e-015 -90 -90   XYZ
    dof rx rz
    limits (-90.0 90.0)
           (-45.0 45.0)
  end
  begin
     id 29
     name rfingers
     direction -1 -4.48945e-011 1.9063e-026   
     length 0.736798   
     axis -1.21618e-014 -90 -90   XYZ
    dof rx
    limits (0.0 90.0)
  end
  begin
     id 30
     name rthumb
     direction -0.707107 -6.34966e-011 0.707107   
     length 1.0579   
     axis -90 -45 1.62303e-014   XYZ
    dof rx rz
    limits (-45.0 45.0)
           (-45.0 45.0)
  end
:hierarchy
  begin
    root lhipjoint rhipjoint lowerback
    lhipjoint lfemur
    lfemur ltibia
    ltibia lfoot
    lfoot ltoes
    rhipjoint rfemur
    rfemur rtibia
    rtibia rfoot
    rfoot rtoes
    lowerback upperback
    upperback thorax
    thorax lowerneck lclavicle rclavicle
    lowerneck upperneck
    upperneck head
    lclavicle lhumerus
    lhumerus lradius
    lradius lwrist
    lwrist lhand lthumb
    lhand lfingers
    rclavicle rhumerus
    rhumerus rradius
    rradius rwrist
    rwrist rhand rthumb
    rhand rfingers
  end

#!OML:ASF F:\VICON\USERDATA\INSTALL\rory3\rory3.ASF
:FULLY-SPECIFIED
:DEGREES
121
root -16.7219 16.0786 6.97965 -7.0206 -7.27686 -3.10482
lowerback 17.983 0.411894 0.225582
upperback 3.50412 0.70888 1.94539
thorax -6.3274 0.348571 1.78719
lowerneck -15.656 14.1532 4.90647
upperneck 1.80037 19.4254 -16.978
head 5.28186 8.72021 -3.97557
rclavicle -9.41742e-015 1.11319e-014
rhumerus -18.708 13.0508 -79.0113
rradius 82.8999
rwrist -67.071
rhand 39.5745 311.496
rfingers 7.12502
rthumb 62.0415 -779.946
lclavicle -9.41742e-015 1.11319e-014
lhumerus -4.20611 -50.7198 93.2175
lradius 77.0814
lwrist 28.3625
lhand -25.1447 37.9207
lfingers 7.12502
lthumb 1.37181 67.896
rfemur -0.633095 -12.3513 9.47633
rtibia 52.7976
rfoot -26.644 -20.8041
rtoes -29.6275
lfemur -32.5259 -6.88036 -3.79227
ltibia 56.5304
lfoot -8.27093 -22.6294
ltoes -11.6339
122
root -16.7347 16.1836 6.88208 -6.80088 -4.28647 -2.81717
lowerback 17.7638 0.44408 -0.523803
upperback 3.0948 0.594376 1.55679
thorax -6.64828 0.311203 1.82517
lowerneck -15.9853 13.5674 4.1656
upperneck 1.82297 18.6957 -16.4086
head 5.13203 8.37551 -3.79659
rclavicle 2.12141e-015 -8.05078e-015
rhumerus -15.3443 10.6881 -74.1285
rradius 85.217
rwrist -68.5199
rhand 47.4527 314.288
rfingers 7.12502
rthumb 68.2025 -766.451
lclavicle 2.12141e-015 -8.05078e-015
lhumerus -0.149483 -50.0455 90.2989
lradius 79.2188
lwrist 25.5256
lhand -24.3373 37.6978
lfingers 7.12502
lthumb 2.15161 67.6667
rfemur 0.290134 -13.0896 9.89332
rtibia 50.9173
rfoot -25.7987 -22.2417
rtoes -23.9524
lfemur -33.0395 -7.02247 -4.35662
ltibia 53.996
lfoot -5.54727 -24.8883
ltoes -12.643
123
root -16.7347 16.316 6.86439 -7.84231 2.77164 -2.54946
lowerback 18.3014 -0.988057 -0.688573
upperback 3.01064 -1.35744 0.925368
thorax -6.9655 -0.631234 1.7071
lowerneck -16.7288 12.9488 3.75864
upperneck 3.04677 17.9882 -15.3488
head 5.40825 7.98222 -3.45822
rclavicle 1.78037e-014 2.78299e-015
rhumerus -11.9108 7.14768 -68.7719
rradius 87.0016
rwrist -69.8363
rhand 53.2461 326.66
rfingers 7.12502
rthumb 71.9161 -741.735
lclavicle 1.78037e-014 2.78299e-015
lhumerus 2.59355 -49.2926 88.1338
lradius 81.717
lwrist 24.0628
lhand -25.225 35.8741
lfingers 7.12502
lthumb 1.29422 65.85
rfemur 4.56231 -17.1273 9.05693
rtibia 48.4289
rfoot -25.7253 -23.59
rtoes -16.8661
lfemur -32.8384 -10.7034 -5.80679
ltibia 51.2676
lfoot -2.72333 -26.9154
ltoes -12.5924
124
root -16.7484 16.4783 6.82975 -7.26376 5.36517 -2.19574
lowerback 17.4495 -0.915887 -1.58864
upperback 2.62872 -1.45314 0.566876
thorax -6.89832 -0.657737 1.8419
lowerneck -17.697 12.3595 3.12086
upperneck 4.48749 17.3794 -14.1918
head 5.7814 7.62397 -3.02781
rclavicle -1.48592e-014 4.17448e-015
rhumerus -7.7191 2.60143 -63.114
rradius 88.2566
rwrist -70.5315
rhand 65.1486 336.183
rfingers 7.12502
rthumb 74.8845 -692.458
lclavicle -1.48592e-014 4.17448e-015
lhumerus 4.80598 -47.8572 86.3233
lradius 84.4375
lwrist 22.9428
lhand -26.7855 33.566
lfingers 7.12502
lthumb -0.212878 63.5456
rfemur 5.40558 -17.7675 9.50808
rtibia 45.9676
rfoot -25.0984 -24.7613
rtoes -11.4934
lfemur -32.7749 -9.79933 -6.68036
ltibia 48.6505
lfoot -2.89827 -28.2972
ltoes -21.0061
125
root -16.7457 16.6337 6.78352 -6.5363 7.31351 -1.89612
lowerback 16.4411 -0.695962 -2.00272
upperback 2.27446 -1.26515 0.00259278
thorax -6.74003 -0.562103 1.41498
lowerneck -18.3814 11.6978 2.73141
upperneck 5.69213 16.5857 -13.0987
head 6.06319 7.2131 -2.69508
rclavicle -1.24737e-014 -8.34896e-015
rhumerus -3.24768 -2.85902 -57.8817
rradius 88.1082
rwrist -68.6206
rhand 60.9837 340.398
rfingers 7.12502
rthumb 74.7856 -703.659
lclavicle -1.24737e-014 -8.34896e-015
lhumerus 7.01341 -46.6166 84.1569
lradius 87.1565
lwrist 21.6516
lhand -26.1569 31.6936
lfingers 7.12502
lthumb 0.39422 61.673
rfemur 5.79286 -17.968 10.022
rtibia 43.5675
rfoot -24.8737 -25.3263
rtoes -4.89596
lfemur -32.7971 -8.38865 -7.54232
ltibia 46.8018
lfoot -3.43854 -28.0462
ltoes -27.9682
126
root -16.722 16.7649 6.73728 -5.84376 8.83563 -1.66222
lowerback 15.5711 -0.52562 -2.34266
upperback 1.99076 -1.10829 -0.370956
thorax -6.57311 -0.481921 1.16434
lowerneck -19.0323 11.1956 2.26873
upperneck 6.55209 15.9977 -12.1953
head 6.27187 6.9132 -2.38877
rclavicle -2.44505e-014 -1.15295e-014
rhumerus 2.2123 -9.05296 -52.9471
rradius 87.2334
rwrist -66.658
rhand 55.7735 338.459
rfingers 7.12502
rthumb 73.1788 -722.962
lclavicle -2.44505e-014 -1.15295e-014
lhumerus 8.60591 -44.8027 82.3961
lradius 90.3326
lwrist 20.862
lhand -25.0224 30.3146
lfingers 7.12502
lthumb 1.48995 60.2891
rfemur 5.9919 -18.1019 10.3731
rtibia 41.6466
rfoot -24.6675 -25.6804
rtoes 0.964131
lfemur -33.1784 -6.96598 -8.37261
ltibia 46.5111
lfoot -1.56714 -25.6289
ltoes -20.8357
127
root -16.6693 16.8307 6.69664 -5.42493 9.99135 -1.62614
lowerback 14.9742 -0.272586 -2.21353
upperback 1.62916 -0.760283 -0.621215
thorax -6.64784 -0.315641 0.749013
lowerneck -19.1619 10.7036 1.87209
upperneck 7.33433 15.4069 -11.3731
head 6.39488 6.63813 -2.13964
rclavicle 3.2054e-014 -4.77083e-015
rhumerus 7.89395 -15.3983 -48.5347
rradius 84.8476
rwrist -62.8946
rhand 56.1065 338.005
rfingers 7.12502
rthumb 73.3243 -722.42
lclavicle 3.2054e-014 -4.77083e-015
lhumerus 9.25998 -43.7512 81.3537
lradius 93.886
lwrist 21.4471
lhand -24.5255 28.8176
lfingers 7.12502
lthumb 1.96984 58.7883
rfemur 6.18343 -18.0969 10.582
rtibia 40.2593
rfoot -24.0885 -26.1069
rtoes 3.22405
lfemur -33.3582 -6.07488 -8.93171
ltibia 48.4463
lfoot -6.09514 -20.5977
ltoes -24.8385
128
root -16.6184 16.8848 6.64416 -5.298 10.7134 -2.03038
lowerback 14.8635 0.00486063 -1.67935
upperback 1.1769 -0.319824 -0.7379
thorax -7.08617 -0.112228 0.232715
lowerneck -19.0767 10.3696 2.05505
upperneck 8.22014 14.9359 -10.8194
head 6.59858 6.4218 -2.04411
rclavicle 1.23246e-014 7.95139e-015
rhumerus 14.5131 -21.5203 -45.3237
rradius 81.8065
rwrist -59.0793
rhand 53.7293 334.823
rfingers 7.12502
rthumb 72.1776 -732.317
lclavicle 1.23246e-014 7.95139e-015
lhumerus 9.36235 -43.0318 80.2871
lradius 97.8203
lwrist 22.1383
lhand -24.6176 28.0092
lfingers 7.12502
lthumb 1.88085 57.9807
rfemur 6.28452 -17.8727 11.2165
rtibia 39.3893
rfoot -23.7583 -26.383
rtoes 5.10352
lfemur -33.5675 -5.011 -8.79499
ltibia 52.4218
lfoot -7.80345 -16.1692
ltoes -24.6737
129
root -16.5451 16.8858 6.59798 -5.52441 10.9032 -2.45231
lowerback 14.9923 0.390104 -0.714787
upperback 0.867286 0.330938 -0.91479
thorax -7.49344 0.171534 -0.639824
lowerneck -19.1965 10.0504 2.12065
upperneck 9.1978 14.5142 -10.2505
head 6.86211 6.21842 -1.90966
rclavicle 1.92324e-014 -4.77083e-015
rhumerus 22.0894 -27.3007 -43.4551
rradius 78.4515
rwrist -56.7427
rhand 47.4161 330.111
rfingers 7.12502
rthumb 68.1762 -750.691
lclavicle 1.92324e-014 -4.77083e-015
lhumerus 8.78632 -42.3736 79.9586
lradius 101.941
lwrist 22.243
lhand -24.26 27.9171
lfingers 7.12502
lthumb 2.22625 57.8853
rfemur 6.44522 -17.4018 11.5619
rtibia 39.1543
rfoot -23.9166 -26.4317
rtoes 6.15532
lfemur -33.2172 -4.2068 -8.27718
ltibia 57.7611
lfoot -6.10887 -16.1315
ltoes -23.6064
